<?xml version="1.0" encoding="UTF-8"?>
<svg width="116px" height="70px" viewBox="0 0 116 70" version="1.1" xmlns="http://www.w3.org/2000/svg" xmlns:xlink="http://www.w3.org/1999/xlink">
    <defs>
        <rect id="path-1" x="0.340359375" y="0.488832451" width="35.9450959" height="36.2719006" rx="2.25"></rect>
    </defs>
    <g id="Board" stroke="none" stroke-width="1" fill="none" fill-rule="evenodd">
        <g id="0.11-empty-free-populated" transform="translate(-797.000000, -322.000000)">
            <g id="empty" transform="translate(428.000000, 274.000000)">
                <g id="new_team" transform="translate(369.000000, 48.000000)">
                    <g id="friends">
                        <g id="stars" fill="#8FDFEB">
                            <path d="M0,31.7589059 L0,30.9199357 L3.58155942,29.8726433 L4.62484216,26.2857143 L5.46211436,26.2857143 L6.50728711,29.8726433 L10.0869565,30.9199357 L10.0869565,31.7589059 L6.50728711,32.8061983 L5.46211436,36.3931273 L4.62484216,36.3931273 L3.58155942,32.8061983 L0,31.7589059 Z M116,61.249606 L116,62.0885762 L112.422221,63.1358686 L111.375158,66.7227977 L110.537886,66.7227977 L109.492713,63.1358686 L105.913043,62.0885762 L105.913043,61.249606 L109.492713,60.2023137 L110.537886,56.6153846 L111.375158,56.6153846 L112.422221,60.2023137 L116,61.249606 Z M100.043478,66.3171107 L100.043478,66.7365958 L98.2545886,67.260242 L97.7310572,69.0537065 L97.3124211,69.0537065 L96.7898347,67.260242 L95,66.7365958 L95,66.3171107 L96.7898347,65.7934645 L97.3124211,64 L97.7310572,64 L98.2545886,65.7934645 L100.043478,66.3171107 Z M74.4309797,7.07692308 L73.8449275,7.07692308 L73.1153043,4.56545254 L70.6086957,3.83205598 L70.6086957,3.24722528 L73.1153043,2.51147054 L73.8449275,0 L74.4309797,0 L75.1629565,2.51147054 L77.6695652,3.24722528 L77.6695652,3.83205598 L75.1629565,4.56545254 L74.4309797,7.07692308 Z M63.7145971,13.1428571 L63.3797101,13.1428571 L62.9627826,11.7077311 L61.5304348,11.2886474 L61.5304348,10.9544584 L62.9627826,10.5340271 L63.3797101,9.0989011 L63.7145971,9.0989011 L64.1328696,10.5340271 L65.5652174,10.9544584 L65.5652174,11.2886474 L64.1328696,11.7077311 L63.7145971,13.1428571 Z M11.2624232,46.5054945 L10.9275362,46.5054945 L10.5106087,45.0703685 L9.07826087,44.6512847 L9.07826087,44.3170958 L10.5106087,43.8966645 L10.9275362,42.4615385 L11.2624232,42.4615385 L11.6806957,43.8966645 L13.1130435,44.3170958 L13.1130435,44.6512847 L11.6806957,45.0703685 L11.2624232,46.5054945 Z" id="Combined-Shape"></path>
                        </g>
                        <g id="avatar_purple" transform="translate(39.927864, 40.018644) rotate(-6.000000) translate(-39.927864, -40.018644) translate(20.762647, 20.809852)">
                            <rect id="Rectangle-3" fill="#CD8DE5" x="1.30729978e-13" y="-1.74702938e-13" width="38.3304348" height="38.4175824" rx="2.25"></rect>
                            <path d="M12.2657391,13.8303297 C13.535898,13.8303297 14.5655652,15.1033764 14.5655652,13.8303297 C14.5655652,12.557283 13.535898,11.5252747 12.2657391,11.5252747 C10.9955803,11.5252747 9.96591304,12.557283 9.96591304,13.8303297 C9.96591304,15.1033764 10.9955803,13.8303297 12.2657391,13.8303297 Z" id="Oval-4" fill="#6C547B"></path>
                            <path d="M23.6798637,19.0777225 C24.2205046,18.5925156 25.6660211,18.7151958 25.1399749,20.0474469 C24.6139288,21.3803873 22.6195537,23.5844372 19.4264027,24.0342256 C16.2332517,24.484014 13.7566389,22.5747404 13.2731079,21.9420417 C12.7895769,21.309343 12.9767707,19.8371814 14.3651772,20.3906204 C15.7535838,20.9440595 16.8900447,21.2431852 18.8973417,20.9604366 C20.9046386,20.677688 23.1392227,19.5622401 23.6798637,19.0777225 Z" id="Fill-4" fill="#6C547B" transform="translate(19.142836, 21.459687) rotate(8.000000) translate(-19.142836, -21.459687) "></path>
                            <path d="M26.0646957,13.8303297 C27.3348545,13.8303297 28.3645217,15.1033764 28.3645217,13.8303297 C28.3645217,12.557283 27.3348545,11.5252747 26.0646957,11.5252747 C24.7945368,11.5252747 23.7648696,12.557283 23.7648696,13.8303297 C23.7648696,15.1033764 24.7945368,13.8303297 26.0646957,13.8303297 Z" id="Oval-4" fill="#6C547B"></path>
                        </g>
                        <g id="avatar" transform="translate(84.564172, 37.689840) rotate(6.000000) translate(-84.564172, -37.689840) translate(66.407650, 18.986543)">
                            <mask id="mask-2" fill="white">
                                <use xlink:href="#path-1"></use>
                            </mask>
                            <use id="Mask" fill="#F2D600" xlink:href="#path-1"></use>
                            <g id="Group-6" mask="url(#mask-2)" fill="#BD903C">
                                <g transform="translate(11.381317, 13.622648)">
                                    <ellipse id="Oval-7" cx="2.38128002" cy="2.69291127" rx="2.16149068" ry="2.16707059"></ellipse>
                                    <ellipse id="Oval-7" cx="16.3433327" cy="2.42528627" rx="2.16149068" ry="2.16707059"></ellipse>
                                    <path d="M11.45543,8.18355321 C11.909354,7.62658402 13.4211054,7.90878985 13.1490936,9.16684644 C12.8770817,10.424903 11.9231408,15.2078381 9.93807182,15.43008 C7.95300279,15.6523218 5.90305293,11.1802692 5.38995164,10.5047129 C4.87685035,9.82915654 4.8332206,8.32428854 6.54880639,8.84820169 C8.26439219,9.37211483 11.0015061,8.7405224 11.45543,8.18355321 Z" id="Fill-4" transform="translate(9.130025, 11.674597) rotate(6.000000) translate(-9.130025, -11.674597) "></path>
                                </g>
                            </g>
                        </g>
                    </g>
                </g>
            </g>
        </g>
    </g>
</svg>